<svg height="512pt" viewBox="0 -8 512 511" width="512pt" xmlns="http://www.w3.org/2000/svg"><path d="m426.496094 63.800781 13.125-60.167969c.507812-1.851562 2.191406-3.132812 4.113281-3.132812 1.917969 0 3.601563 1.28125 4.113281 3.132812l13.121094 60.167969v.085938l-.167969 64.597656h-34.132812zm0 0" fill="#95a5a5"/><path d="m435.199219 102.882812-12.925781-51.710937c-.476563-1.898437-2.183594-3.230469-4.140626-3.230469-1.957031 0-3.664062 1.332032-4.136718 3.230469l-12.929688 51.710937 17.066406 25.601563zm0 0" fill="#cbb292"/><path d="m486.398438 102.882812-12.925782-51.710937c-.476562-1.898437-2.183594-3.230469-4.140625-3.230469s-3.660156 1.332032-4.136719 3.230469l-12.929687 51.710937 17.066406 25.601563zm0 0" fill="#cbb292"/><path d="m51.03125 63.800781 13.121094-60.167969c.511718-1.851562 2.195312-3.132812 4.113281-3.132812 1.921875 0 3.605469 1.28125 4.113281 3.132812l13.125 60.167969v.085938l-.171875 56.0625h-34.132812" fill="#95a5a5"/><path d="m59.734375 102.882812-12.929687-51.710937c-.476563-1.898437-2.179688-3.230469-4.136719-3.230469s-3.664063 1.332032-4.140625 3.230469l-12.925782 51.710937 17.066407 25.601563zm0 0" fill="#cbb292"/><path d="m110.933594 102.882812-12.929688-51.710937c-.472656-1.898437-2.179687-3.230469-4.136718-3.230469-1.957032 0-3.664063 1.332032-4.140626 3.230469l-12.925781 51.710937 17.066407 25.601563zm0 0" fill="#cbb292"/><path d="m221.867188 179.683594c-1.996094 0-3.929688-.703125-5.460938-1.980469l-45.738281-38.125-45.730469 38.109375c-2.34375 1.953125-5.546875 2.511719-8.410156 1.460938-2.863282-1.050782-4.949219-3.550782-5.472656-6.554688-.519532-3.003906.601562-6.058594 2.941406-8.015625l51.199218-42.664063c3.167969-2.644531 7.773438-2.644531 10.941407 0l51.199219 42.664063c2.773437 2.300781 3.804687 6.089844 2.578124 9.476563-1.226562 3.386718-4.445312 5.640624-8.046874 5.628906zm0 0" fill="#bdc3c7"/><path d="m392.535156 179.683594c-1.996094 0-3.929687-.703125-5.464844-1.980469l-45.738281-38.125-45.730469 38.109375c-3.617187 3.019531-9 2.535156-12.023437-1.085938-3.019531-3.617187-2.535156-9 1.085937-12.023437l51.199219-42.664063c3.167969-2.644531 7.773438-2.644531 10.941407 0l51.199218 42.664063c2.773438 2.300781 3.804688 6.089844 2.578125 9.476563-1.226562 3.386718-4.445312 5.640624-8.046875 5.628906zm0 0" fill="#bdc3c7"/><path d="m418.132812 179.683594h-153.597656c-4.714844 0-8.535156-3.820313-8.535156-8.535156 0-4.710938 3.820312-8.53125 8.535156-8.53125h145.066406v-25.601563h-145.066406c-4.714844 0-8.535156-3.820313-8.535156-8.53125 0-4.714844 3.820312-8.535156 8.535156-8.535156h153.597656c4.714844 0 8.535157 3.820312 8.535157 8.535156v42.664063c0 4.714843-3.820313 8.535156-8.535157 8.535156zm0 0" fill="#67b9cc"/><path d="m238.933594 179.683594h-145.066406c-4.714844 0-8.535157-3.820313-8.535157-8.535156v-42.664063c0-4.714844 3.820313-8.535156 8.535157-8.535156h145.066406c4.710937 0 8.53125 3.820312 8.53125 8.535156 0 4.710937-3.820313 8.53125-8.53125 8.53125h-136.535156v25.601563h136.535156c4.710937 0 8.53125 3.820312 8.53125 8.53125 0 4.714843-3.820313 8.535156-8.53125 8.535156zm0 0" fill="#67b9cc"/><path d="m238.933594 119.949219h34.132812c4.714844 0 8.535156 3.820312 8.535156 8.535156v42.664063c0 4.714843-3.820312 8.535156-8.535156 8.535156h-34.132812c-4.714844 0-8.535156-3.820313-8.535156-8.535156v-42.664063c0-4.714844 3.820312-8.535156 8.535156-8.535156zm0 0" fill="#e6e7e8"/><path d="m128 431.84375 114.515625-65.621094c4.113281-2.398437 5.96875-7.355468 4.4375-11.863281h-.082031c-.84375-2.480469-2.640625-4.527344-4.996094-5.679687-2.355469-1.152344-5.070312-1.320313-7.550781-.464844l-109.566407 38.144531" fill="#7f8c8d"/><path d="m387.242188 386.359375-109.566407-38.144531c-2.480469-.855469-5.195312-.6875-7.550781.464844-2.355469 1.152343-4.152344 3.199218-4.996094 5.679687h-.082031c-1.53125 4.507813.324219 9.464844 4.4375 11.863281l114.515625 65.621094" fill="#7f8c8d"/><path d="m25.601562 230.882812v93.867188h85.332032v-93.867188" fill="#f9eab0"/><path d="m25.601562 230.882812v-128h85.332032v128" fill="#f9eab0"/><path d="m110.933594 324.75v76.800781h-85.332032v-76.800781" fill="#f9eab0"/><path d="m128 486.882812v-93.867187c-.042969-4.695313-3.835938-8.492187-8.535156-8.53125h-102.398438c-4.710937 0-8.53125 3.820313-8.53125 8.53125v76.800781l42.664063 17.066406 25.601562-17.066406zm0 0" fill="#7f6e5d"/><path d="m25.601562 307.683594h85.332032c4.710937 0 8.53125 3.820312 8.53125 8.53125v17.070312c0 4.710938-3.820313 8.53125-8.53125 8.53125h-85.332032c-4.714843 0-8.535156-3.820312-8.535156-8.53125v-17.070312c0-4.710938 3.820313-8.53125 8.535156-8.53125zm0 0" fill="#cbb292"/><path d="m25.601562 213.816406h85.332032c4.710937 0 8.53125 3.820313 8.53125 8.535156v17.066407c0 4.710937-3.820313 8.53125-8.53125 8.53125h-85.332032c-4.714843 0-8.535156-3.820313-8.535156-8.53125v-17.066407c0-4.714843 3.820313-8.535156 8.535156-8.535156zm0 0" fill="#cbb292"/><path d="m68.265625 179.683594c-4.710937 0-8.53125-3.820313-8.53125-8.535156v-25.597657c0-4.714843 3.820313-8.535156 8.53125-8.535156 4.714844 0 8.535156 3.820313 8.535156 8.535156v25.597657c0 4.714843-3.820312 8.535156-8.535156 8.535156zm0 0" fill="#7f6e5d"/><path d="m401.066406 230.882812v93.867188h85.332032v-93.867188" fill="#f9eab0"/><path d="m401.066406 230.882812v-128h85.332032v128" fill="#f9eab0"/><path d="m486.398438 324.75v76.800781h-85.332032v-76.800781" fill="#f9eab0"/><path d="m503.464844 469.816406v-76.800781c0-4.710937-3.820313-8.53125-8.53125-8.53125h-102.398438c-4.699218.039063-8.492187 3.835937-8.535156 8.53125v93.867187l42.667969-17.066406 42.664062 17.066406zm0 0" fill="#7f6e5d"/><path d="m401.066406 307.683594h85.332032c4.714843 0 8.535156 3.820312 8.535156 8.53125v17.070312c0 4.710938-3.820313 8.53125-8.535156 8.53125h-85.332032c-4.710937 0-8.53125-3.820312-8.53125-8.53125v-17.070312c0-4.710938 3.820313-8.53125 8.53125-8.53125zm0 0" fill="#cbb292"/><path d="m401.066406 213.816406h85.332032c4.714843 0 8.535156 3.820313 8.535156 8.535156v17.066407c0 4.710937-3.820313 8.53125-8.535156 8.53125h-85.332032c-4.710937 0-8.53125-3.820313-8.53125-8.53125v-17.066407c0-4.714843 3.820313-8.535156 8.53125-8.535156zm0 0" fill="#cbb292"/><path d="m443.734375 179.683594c-4.714844 0-8.535156-3.820313-8.535156-8.535156v-25.597657c0-4.714843 3.820312-8.535156 8.535156-8.535156 4.710937 0 8.53125 3.820313 8.53125 8.535156v25.597657c0 4.714843-3.820313 8.535156-8.53125 8.535156zm0 0" fill="#7f6e5d"/><g fill="#95a5a5"><path d="m34.132812 444.214844c-4.710937 0-8.53125-3.820313-8.53125-8.53125v-17.066406c0-4.714844 3.820313-8.535157 8.53125-8.535157 4.714844 0 8.535157 3.820313 8.535157 8.535157v17.066406c0 4.710937-3.820313 8.53125-8.535157 8.53125zm0 0"/><path d="m68.265625 444.214844c-4.710937 0-8.53125-3.820313-8.53125-8.53125v-17.066406c0-4.714844 3.820313-8.535157 8.53125-8.535157 4.714844 0 8.535156 3.820313 8.535156 8.535157v17.066406c0 4.710937-3.820312 8.53125-8.535156 8.53125zm0 0"/><path d="m102.398438 444.214844c-4.710938 0-8.53125-3.820313-8.53125-8.53125v-17.066406c0-4.714844 3.820312-8.535157 8.53125-8.535157 4.714843 0 8.535156 3.820313 8.535156 8.535157v17.066406c0 4.710937-3.820313 8.53125-8.535156 8.53125zm0 0"/><path d="m409.601562 444.214844c-4.714843 0-8.535156-3.820313-8.535156-8.53125v-17.066406c0-4.714844 3.820313-8.535157 8.535156-8.535157 4.710938 0 8.53125 3.820313 8.53125 8.535157v17.066406c0 4.710937-3.820312 8.53125-8.53125 8.53125zm0 0"/><path d="m443.734375 444.214844c-4.714844 0-8.535156-3.820313-8.535156-8.53125v-17.066406c0-4.714844 3.820312-8.535157 8.535156-8.535157 4.710937 0 8.53125 3.820313 8.53125 8.535157v17.066406c0 4.710937-3.820313 8.53125-8.53125 8.53125zm0 0"/><path d="m477.867188 444.214844c-4.714844 0-8.535157-3.820313-8.535157-8.53125v-17.066406c0-4.714844 3.820313-8.535157 8.535157-8.535157 4.710937 0 8.53125 3.820313 8.53125 8.535157v17.066406c0 4.710937-3.820313 8.53125-8.53125 8.53125zm0 0"/></g><path d="m468.171875 495.417969c-9.070313-.074219-17.664063-4.058594-23.585937-10.933594-4.265626-4.144531-6.585938-6.132813-11.742188-6.132813-5.152344 0-7.441406 1.988282-11.722656 6.132813-5.878906 6.933594-14.507813 10.929687-23.597656 10.929687-9.085938 0-17.714844-3.996093-23.59375-10.929687-4.265626-4.144531-6.585938-6.132813-11.75-6.132813-5.160157 0-7.449219 1.988282-11.742188 6.132813-5.875 6.933594-14.503906 10.929687-23.589844 10.929687-9.085937 0-17.714844-3.996093-23.589844-10.929687-4.265624-4.144531-6.578124-6.132813-11.742187-6.132813s-7.457031 1.988282-11.757813 6.140626c-5.882812 6.933593-14.515624 10.925781-23.605468 10.925781s-17.71875-3.992188-23.601563-10.925781c-4.265625-4.144532-6.597656-6.132813-11.75-6.132813-5.15625 0-7.457031 1.988281-11.757812 6.144531-5.882813 6.929688-14.511719 10.921875-23.601563 10.921875s-17.71875-3.992187-23.597656-10.921875c-4.265625-4.148437-6.597656-6.136718-11.75-6.136718-5.15625 0-7.460938 1.988281-11.761719 6.144531-5.878906 6.929687-14.511719 10.925781-23.601562 10.925781-9.089844 0-17.722657-3.996094-23.601563-10.925781-4.300781-4.171875-6.597656-6.160157-11.769531-6.160157s-7.484375 1.996094-11.785156 6.140626c-5.945313 6.863281-14.550781 10.839843-23.628907 10.925781-9.078124-.074219-17.6875-4.054688-23.628906-10.925781-4.300781-4.144532-6.601562-6.140626-11.78125-6.140626-4.714844 0-8.535156-3.820312-8.535156-8.535156 0-4.710937 3.820312-8.53125 8.535156-8.53125 9.078125.078125 17.6875 4.054688 23.636719 10.921875 4.265625 4.144531 6.59375 6.144531 11.773437 6.144531 5.179688 0 7.492188-2 11.804688-6.144531 5.886719-6.929687 14.519531-10.921875 23.609375-10.921875 9.09375 0 17.726563 3.992188 23.613281 10.921875 4.265625 4.15625 6.59375 6.144531 11.757813 6.144531 5.164062 0 7.449219-1.988281 11.75-6.136718 5.882812-6.933594 14.511719-10.929688 23.605469-10.929688 9.089843 0 17.722656 3.996094 23.601562 10.929688 4.265625 4.148437 6.585938 6.136718 11.742188 6.136718 5.152343 0 7.457031-1.988281 11.757812-6.144531 5.886719-6.929687 14.519531-10.921875 23.609375-10.921875s17.722656 3.992188 23.605469 10.921875c4.265625 4.15625 6.589844 6.144531 11.761718 6.144531 5.167969 0 7.449219-1.988281 11.75-6.136718 5.878907-6.933594 14.507813-10.929688 23.597657-10.929688 9.089843 0 17.71875 3.996094 23.597656 10.929688 4.269531 4.148437 6.589844 6.136718 11.75 6.136718 5.164063 0 7.441406-1.988281 11.726563-6.136718 5.878906-6.933594 14.507812-10.929688 23.597656-10.929688s17.722656 3.996094 23.601562 10.929688c4.265625 4.148437 6.578125 6.136718 11.738282 6.136718 5.164062 0 7.441406-1.988281 11.726562-6.136718 5.875-6.933594 14.503906-10.929688 23.589844-10.929688 9.089844 0 17.714844 3.996094 23.589844 10.929688 4.269531 4.148437 6.589843 6.136718 11.742187 6.136718 5.15625 0 7.425781-1.988281 11.707031-6.136718 5.929688-6.863282 14.519532-10.84375 23.585938-10.929688 4.714844 0 8.535156 3.820313 8.535156 8.53125 0 4.714844-3.820312 8.535156-8.535156 8.535156-5.117188 0-7.429688 1.988282-11.714844 6.132813-5.917969 6.871094-14.511719 10.851563-23.578125 10.933594zm0 0" fill="#3f5c6c"/></svg>