<svg height="512pt" viewBox="0 0 512 512.00001" width="512pt" xmlns="http://www.w3.org/2000/svg"><path d="m136.5 409.8125h239v90.933594h-239zm0 0" fill="#54849c"/><path d="m344.597656 409.8125h30.902344v90.933594h-30.902344zm0 0" fill="#517f96"/><path d="m210.335938 409.8125h91.328124v90.933594h-91.328124zm0 0" fill="#4a758a"/><path d="m396.035156 425.347656h-280.070312c-2.289063 0-4.109375-1.917968-3.992188-4.203125l13.195313-260.511719h261.664062l13.195313 260.511719c.117187 2.285157-1.707032 4.203125-3.992188 4.203125zm0 0" fill="#f4511e"/><path d="m386.832031 160.632812h-30.902343l13.40625 264.714844h26.699218c2.289063 0 4.109375-1.917968 3.996094-4.203125zm0 0" fill="#e64a19"/><path d="m325.496094 425.347656h-138.992188l6.460938-264.714844h126.070312zm0 0" fill="#ff5622"/><path d="m266.351562 338.21875h-20.703124c-2.25 0-4.070313-1.824219-4.070313-4.074219v-47.484375c0-2.25 1.820313-4.074218 4.070313-4.074218h20.703124c2.25 0 4.070313 1.824218 4.070313 4.074218v47.484375c0 2.25-1.820313 4.074219-4.070313 4.074219zm0 0" fill="#ffd740"/><path d="m410.324219 177.632812h-308.648438c-4.402343 0-7.96875-3.566406-7.96875-7.96875 0-1.492187.417969-2.949218 1.207031-4.214843 8.523438-13.675781 62.164063-92.898438 161.085938-92.898438s152.5625 79.222657 161.085938 92.898438c.789062 1.265625 1.207031 2.722656 1.207031 4.214843 0 4.402344-3.566407 7.96875-7.96875 7.96875zm0 0" fill="#54849c"/><path d="m417.085938 165.449219c-8.523438-13.675781-62.164063-92.898438-161.085938-92.898438-5.28125 0-10.429688.238281-15.453125.667969 89.0625 7.617188 137.566406 79.289062 145.632813 92.230469.789062 1.265625 1.207031 2.722656 1.207031 4.214843 0 4.402344-3.566407 7.972657-7.96875 7.972657h30.90625c4.398437 0 7.96875-3.570313 7.96875-7.972657 0-1.492187-.417969-2.949218-1.207031-4.214843zm0 0" fill="#517f96"/><g fill="#fff7e6"><path d="m274.84375 175.824219-15.191406-15.191407c-2.332032-2.332031-2.421875-6.085937-.203125-8.53125l136.4375-150.078124c2.375-2.613282 6.449219-2.707032 8.945312-.214844l28.832031 28.835937c2.496094 2.492188 2.398438 6.570313-.210937 8.941407l-150.082031 136.441406c-2.441406 2.21875-6.195313 2.128906-8.527344-.203125zm0 0"/><path d="m252.347656 198.320312-15.191406-15.191406c-2.332031-2.332031-6.085938-2.421875-8.527344-.203125l-150.082031 136.4375c-2.609375 2.375-2.707031 6.449219-.210937 8.945313l28.832031 28.832031c2.492187 2.496094 6.570312 2.398437 8.941406-.210937l136.441406-150.082032c2.21875-2.441406 2.128907-6.195312-.203125-8.527344zm0 0"/><path d="m259.652344 198.320312 15.191406-15.191406c2.332031-2.332031 6.085938-2.421875 8.527344-.203125l150.082031 136.4375c2.609375 2.375 2.707031 6.449219.210937 8.945313l-28.832031 28.832031c-2.492187 2.496094-6.570312 2.398437-8.941406-.210937l-136.441406-150.082032c-2.21875-2.441406-2.128907-6.195312.203125-8.527344zm0 0"/><path d="m237.15625 175.824219 15.191406-15.191407c2.332032-2.332031 2.421875-6.085937.203125-8.53125l-136.4375-150.078124c-2.375-2.613282-6.449219-2.707032-8.945312-.214844l-28.832031 28.835937c-2.496094 2.492188-2.398438 6.570313.210937 8.941407l150.082031 136.441406c2.441406 2.21875 6.195313 2.128906 8.527344-.203125zm0 0"/></g><path d="m274.996094 160.476562c-10.492188-10.492187-27.503906-10.492187-38 0-10.492188 10.492188-10.492188 27.507813 0 38 10.496094 10.492188 27.507812 10.492188 38 0 10.496094-10.492187 10.496094-27.507812 0-38zm0 0" fill="#e38a54"/><path d="m498.609375 512h-485.21875c-7.394531 0-13.390625-5.996094-13.390625-13.390625 0-7.398437 5.996094-13.394531 13.390625-13.394531h485.214844c7.398437 0 13.394531 5.996094 13.394531 13.394531 0 7.394531-5.996094 13.390625-13.390625 13.390625zm0 0" fill="#d4e157"/><path d="m498.609375 512h-485.21875c-7.394531 0-13.390625-5.996094-13.390625-13.390625 0-7.398437 5.996094-13.394531 13.390625-13.394531h485.214844c7.398437 0 13.394531 5.996094 13.394531 13.394531 0 7.394531-5.996094 13.390625-13.390625 13.390625zm0 0" fill="#d4e157"/><path d="m498.609375 485.214844h-30.90625c7.394531 0 13.390625 5.996094 13.390625 13.390625 0 7.398437-5.996094 13.394531-13.390625 13.394531h30.90625c7.394531 0 13.390625-5.996094 13.390625-13.394531 0-7.394531-5.996094-13.390625-13.390625-13.390625zm0 0" fill="#c3d136"/></svg>