<svg height="512pt" viewBox="0 0 512 512" width="512pt" xmlns="http://www.w3.org/2000/svg"><path d="m496.730469 15.265625c-10.128907-10.128906-24.75-15.265625-43.453125-15.265625-83.941406 0-250.269532 107.414062-308.429688 165.570312-34.394531 34.394532-56.714844 76.984376-62.847656 119.917969-6.359375 44.53125 5.285156 84.207031 32.789062 111.714844 22.546876 22.546875 53.203126 34.464844 88.652344 34.464844 49.867188 0 101.984375-23.519531 142.988282-64.523438 36.449218-36.449219 87.515624-110.148437 121.425781-175.234375 19.917969-38.230468 33.289062-71.632812 39.742187-99.289062 8.347656-35.769532 4.691406-61.796875-10.867187-77.355469zm0 0" fill="#54e360"/><g fill="#1fbf66"><path d="m496.710938 15.246094-381.9375 381.9375c.007812.007812.011718.015625.019531.019531 22.546875 22.546875 53.199219 34.464844 88.652343 34.464844 49.863282 0 101.980469-23.519531 142.988282-64.523438 36.445312-36.449219 87.515625-110.144531 121.421875-175.234375 19.917969-38.226562 33.289062-71.632812 39.742187-99.285156 8.347656-35.773438 4.691406-61.796875-10.867187-77.355469-.003907-.011719-.011719-.015625-.019531-.023437zm0 0"/><path d="m155.941406 473.292969c-2.253906 0-4.542968-.507813-6.695312-1.585938l-45.441406-22.722656c-7.410157-3.707031-10.414063-12.714844-6.707032-20.125 3.703125-7.410156 12.710938-10.414063 20.125-6.707031l45.441406 22.722656c7.410157 3.703125 10.410157 12.714844 6.707032 20.125-2.628906 5.257812-7.925782 8.292969-13.429688 8.292969zm0 0"/><path d="m121.859375 507.375c-2.253906 0-4.542969-.507812-6.695313-1.585938l-45.441406-22.722656c-7.410156-3.707031-10.410156-12.714844-6.707031-20.125 3.707031-7.410156 12.714844-10.410156 20.125-6.707031l45.441406 22.722656c7.410157 3.703125 10.410157 12.714844 6.707031 20.125-2.628906 5.253907-7.925781 8.292969-13.429687 8.292969zm0 0"/></g><path d="m76.441406 416.488281c-5.5 0-10.796875-3.039062-13.425781-8.296875l-22.722656-45.4375c-3.707031-7.410156-.703125-16.421875 6.707031-20.125 7.40625-3.707031 16.417969-.703125 20.125 6.707032l22.722656 45.4375c3.703125 7.410156.703125 16.421874-6.707031 20.125-2.15625 1.078124-4.445313 1.589843-6.699219 1.589843zm0 0" fill="#54e360"/><path d="m42.355469 450.570312c-5.503907 0-10.800781-3.039062-13.429688-8.292968l-22.71875-45.445313c-3.703125-7.410156-.699219-16.417969 6.710938-20.125 7.410156-3.703125 16.421875-.699219 20.125 6.710938l22.71875 45.441406c3.703125 7.410156.699219 16.421875-6.710938 20.125-2.152343 1.078125-4.441406 1.585937-6.695312 1.585937zm0 0" fill="#54e360"/><path d="m505.859375 28.253906c-2.363281-4.921875-5.398437-9.257812-9.128906-12.988281-3.722657-3.722656-8.058594-6.765625-12.976563-9.132813l-104.777344 96.894532v-85.761719c-9.777343 3.757813-19.816406 8.035156-30 12.722656v100.316407l-38.164062 34.699218v-115.9375c-10.046875 5.398438-20.085938 11.066406-30 16.914063v126.300781l-38.167969 34.707031v-137.257812c-10.382812 6.804687-20.433593 13.675781-30 20.492187v144.042969l-38.160156 34.699219-.003906-149.769532c-11.585938 9.449219-21.636719 18.378907-29.628907 26.371094-.125.125-.246093.253906-.371093.378906l.003906 150.296876-51.625 50.0625-81.414063 78.949218c-7.378906 7.386719-11.44921825 17.203125-11.445312 27.648438 0 10.445312 4.070312 20.261718 11.453125 27.644531 7.386719 7.386719 17.203125 11.453125 27.648437 11.453125 10.441407 0 20.257813-4.066406 27.644532-11.449219l78.941406-81.402343 50.066406-51.632813h150.296875c.125-.125.253907-.246094.382813-.371094 8.171875-8.171875 17.078125-18.230469 26.363281-29.628906h-149.765625l34.703125-38.167969h143.980469c6.855468-9.644531 13.71875-19.703125 20.464844-30h-137.164063l34.699219-38.164062h126.25c5.9375-10.042969 11.628906-20.09375 16.96875-30h-115.9375l34.699218-38.164063h100.386719c4.828125-10.441406 9.085938-20.453125 12.761719-30h-85.867188zm0 0" fill="#fef4f5"/><path d="m496.730469 15.265625c-.003907-.007813-.011719-.011719-.019531-.019531l-485.277344 485.277344c.007812.007812.011718.015624.019531.023437 7.386719 7.382813 17.203125 11.449219 27.648437 11.453125h.003907c10.4375 0 20.253906-4.066406 27.640625-11.449219l78.941406-81.40625 50.066406-51.628906h150.296875c.128907-.125.257813-.246094.382813-.371094 8.171875-8.171875 17.082031-18.230469 26.363281-29.628906h-149.765625l34.703125-38.167969h143.980469c6.855468-9.644531 13.71875-19.703125 20.464844-30h-137.164063l34.699219-38.164062 126.25-.003906c5.9375-10.042969 11.628906-20.089844 16.96875-30l-115.9375.003906 34.699218-38.164063 100.386719-.003906c4.828125-10.441406 9.085938-20.449219 12.761719-30l-85.867188.003906 96.882813-104.765625c-2.363281-4.921875-5.398437-9.257812-9.128906-12.988281zm0 0" fill="#d5eded"/></svg>