<?xml version="1.0" encoding="utf-8"?>
<!-- Generator: Adobe Illustrator 23.0.2, SVG Export Plug-In . SVG Version: 6.00 Build 0)  -->
<svg version="1.1" id="Laag_1" xmlns="http://www.w3.org/2000/svg" xmlns:xlink="http://www.w3.org/1999/xlink" x="0px" y="0px"
	 viewBox="0 0 512 512" style="enable-background:new 0 0 512 512;" xml:space="preserve">
<style type="text/css">
	.st0{fill:#C95A5A;stroke:#812C2C;stroke-width:8;stroke-miterlimit:10;}
</style>
<path class="st0" d="M369.3,241.3h-62.7c-1.1-3.6-2.7-7.1-4.5-10.4l44.5-44.5c5.8-5.8,5.8-15.1,0-20.9l0,0c-5.8-5.8-15.1-5.8-20.9,0
	l-45,45c-3.1-1.6-6.5-2.9-9.9-3.9v-63.8c0-8.1-6.6-14.7-14.7-14.7s-14.7,6.6-14.7,14.7V207c-3.3,1-6.4,2.4-9.4,4l-45.5-45.5
	c-5.8-5.8-15.1-5.8-20.9,0l0,0c-5.8,5.8-5.8,15.1,0,20.9l45.5,45.5c-1.6,3-3,6.1-4,9.4h-64.2c-8.1,0-14.7,6.6-14.7,14.7
	s6.6,14.7,14.7,14.7h63.8c1,3.5,2.3,6.8,3.9,9.9l-45,45c-5.8,5.8-5.8,15.1,0,20.9l0,0c5.8,5.8,15.1,5.8,20.9,0l44.5-44.5
	c3.3,1.9,6.7,3.4,10.4,4.5v62.7c0,8.1,6.6,14.7,14.7,14.7s14.7-6.6,14.7-14.7v-62.3c3.8-1.1,7.5-2.5,10.9-4.4l44,44
	c5.8,5.8,15.1,5.8,20.9,0l0,0c5.8-5.8,5.8-15.1,0-20.9l-44-44c1.9-3.4,3.4-7.1,4.4-10.9h62.3c8.1,0,14.7-6.6,14.7-14.7
	S377.4,241.3,369.3,241.3z"/>
</svg>
