<?xml version="1.0" encoding="utf-8"?>
<!-- Generator: Adobe Illustrator 22.1.0, SVG Export Plug-In . SVG Version: 6.00 Build 0)  -->
<svg version="1.1" id="Layer_1" xmlns="http://www.w3.org/2000/svg" xmlns:xlink="http://www.w3.org/1999/xlink" x="0px" y="0px"
	 viewBox="0 0 35 35" style="enable-background:new 0 0 35 35;" xml:space="preserve">
<style type="text/css">
	.st0{fill:#003082;}
</style>
<g>
	<g>
		<path class="st0" d="M17.5,8.1c-0.2,0-0.4,0.2-0.4,0.4v10.9l-3.3-3.3c-0.2-0.2-0.5-0.2-0.6,0c-0.2,0.2-0.2,0.5,0,0.6l4.1,4.1
			c0.1,0.1,0.2,0.1,0.3,0.1c0.1,0,0.2,0,0.3-0.1l4.1-4.1c0.2-0.2,0.2-0.5,0-0.6s-0.5-0.2-0.6,0l-3.3,3.3V8.6
			C17.9,8.3,17.7,8.1,17.5,8.1z"/>
		<path class="st0" d="M8.3,19.4c-0.3,0-0.5,0.2-0.5,0.5l0,4.6c0,0.2,0.2,0.4,0.4,0.4h18.4c0.2,0,0.4-0.2,0.4-0.4v-4.6
			c0-0.3-0.2-0.5-0.5-0.5c-0.2,0-0.4,0.2-0.4,0.4V24c0,0,0,0,0,0H8.7c0,0,0,0,0,0v-4.2C8.7,19.6,8.5,19.4,8.3,19.4z"/>
	</g>
</g>
</svg>
